<svg id="Grupo_39853" data-name="Grupo 39853" xmlns="http://www.w3.org/2000/svg" width="59.081" height="39.059" viewBox="0 0 59.081 39.059">
  <path id="Trazado_672" data-name="Trazado 672" d="M50.623,99.4H8.5L0,102.155H59.118ZM8.5,100.067H50.623l2.609,1.044H5.886Z" transform="translate(0 -70.581)" fill="#161615"/>
  <path id="Trazado_673" data-name="Trazado 673" d="M42.137,30.531h21.05a134.444,134.444,0,0,1,12.7-9.568A63.12,63.12,0,0,1,55.04,0,71.644,71.644,0,0,0,33.7,20.934a61.7,61.7,0,0,0,8.437,9.6Z" transform="translate(-23.929 0)" fill="#c5006c"/>
  <path id="Trazado_674" data-name="Trazado 674" d="M69.4,111.1a61.555,61.555,0,0,0,9.916,6.872q3.508-3.566,7.248-6.872Z" transform="translate(-49.279 -78.887)" fill="#c5006c"/>
</svg>
